<svg width="176" height="60" viewBox="0 0 176 60" fill="none" xmlns="http://www.w3.org/2000/svg">
<path d="M0.288 7.68H13.488V11.808H12.816L12.048 9.144C12 8.936 11.944 8.792 11.88 8.712C11.832 8.616 11.728 8.56 11.568 8.544C11.408 8.528 11.136 8.52 10.752 8.52H8.328V21.984C8.328 22.528 8.352 22.856 8.4 22.968C8.448 23.064 8.6 23.128 8.856 23.16L10.176 23.328V24H3.6V23.328L4.92 23.16C5.176 23.128 5.328 23.064 5.376 22.968C5.424 22.856 5.448 22.528 5.448 21.984V8.52H3.024C2.656 8.52 2.384 8.528 2.208 8.544C2.048 8.56 1.944 8.616 1.896 8.712C1.848 8.792 1.792 8.936 1.728 9.144L0.96 11.808H0.288V7.68ZM35.5733 15.072V16.584C35.5733 19.048 35.0213 20.944 33.9173 22.272C32.8293 23.584 31.2133 24.24 29.0693 24.24C26.9253 24.24 25.3013 23.584 24.1973 22.272C23.1093 20.944 22.5653 19.048 22.5653 16.584V15.072C22.5653 12.608 23.1093 10.72 24.1973 9.408C25.3013 8.096 26.9253 7.44 29.0693 7.44C31.2133 7.44 32.8293 8.096 33.9173 9.408C35.0213 10.72 35.5733 12.608 35.5733 15.072ZM32.5013 13.872C32.5013 12.464 32.3813 11.36 32.1413 10.56C31.9013 9.744 31.5253 9.16 31.0133 8.808C30.5173 8.456 29.8693 8.28 29.0693 8.28C28.2853 8.28 27.6373 8.456 27.1253 8.808C26.6133 9.16 26.2373 9.744 25.9973 10.56C25.7573 11.36 25.6373 12.464 25.6373 13.872V17.784C25.6373 19.176 25.7573 20.28 25.9973 21.096C26.2373 21.912 26.6133 22.504 27.1253 22.872C27.6373 23.224 28.2853 23.4 29.0693 23.4C29.8693 23.4 30.5173 23.224 31.0133 22.872C31.5253 22.504 31.9013 21.912 32.1413 21.096C32.3813 20.28 32.5013 19.176 32.5013 17.784V13.872ZM45.3851 8.352V7.68H51.9611V8.352L50.6411 8.52C50.3851 8.552 50.2331 8.624 50.1851 8.736C50.1371 8.832 50.1131 9.152 50.1131 9.696V16.152L55.8011 9.696C56.2651 9.168 56.5051 8.848 56.5211 8.736C56.5531 8.624 56.4411 8.552 56.1851 8.52L54.8651 8.352V7.68H59.7371V8.352L58.4171 8.52C58.2571 8.536 58.1291 8.568 58.0331 8.616C57.9371 8.664 57.8171 8.768 57.6731 8.928C57.5291 9.088 57.2971 9.344 56.9771 9.696L53.6171 13.488L57.7691 21.984C57.9451 22.32 58.0811 22.568 58.1771 22.728C58.2731 22.888 58.3851 22.992 58.5131 23.04C58.6411 23.088 58.8171 23.128 59.0411 23.16L60.1211 23.328V24H55.5611L51.6731 15.696L50.1131 17.472V21.984C50.1131 22.528 50.1371 22.856 50.1851 22.968C50.2331 23.064 50.3851 23.128 50.6411 23.16L51.9611 23.328V24H45.3851V23.328L46.7051 23.16C46.9611 23.128 47.1131 23.064 47.1611 22.968C47.2091 22.856 47.2331 22.528 47.2331 21.984V9.696C47.2331 9.152 47.2091 8.832 47.1611 8.736C47.1131 8.624 46.9611 8.552 46.7051 8.52L45.3851 8.352ZM81.6607 15.072V16.584C81.6607 19.048 81.1087 20.944 80.0047 22.272C78.9167 23.584 77.3007 24.24 75.1567 24.24C73.0127 24.24 71.3887 23.584 70.2847 22.272C69.1967 20.944 68.6527 19.048 68.6527 16.584V15.072C68.6527 12.608 69.1967 10.72 70.2847 9.408C71.3887 8.096 73.0127 7.44 75.1567 7.44C77.3007 7.44 78.9167 8.096 80.0047 9.408C81.1087 10.72 81.6607 12.608 81.6607 15.072ZM78.5887 13.872C78.5887 12.464 78.4687 11.36 78.2287 10.56C77.9887 9.744 77.6127 9.16 77.1007 8.808C76.6047 8.456 75.9567 8.28 75.1567 8.28C74.3727 8.28 73.7247 8.456 73.2127 8.808C72.7007 9.16 72.3247 9.744 72.0847 10.56C71.8447 11.36 71.7247 12.464 71.7247 13.872V17.784C71.7247 19.176 71.8447 20.28 72.0847 21.096C72.3247 21.912 72.7007 22.504 73.2127 22.872C73.7247 23.224 74.3727 23.4 75.1567 23.4C75.9567 23.4 76.6047 23.224 77.1007 22.872C77.6127 22.504 77.9887 21.912 78.2287 21.096C78.4687 20.28 78.5887 19.176 78.5887 17.784V13.872ZM91.4726 8.352V7.68H98.0966C99.3766 7.68 100.393 7.856 101.145 8.208C101.897 8.56 102.433 9.024 102.753 9.6C103.089 10.176 103.257 10.816 103.257 11.52V12.168C103.257 13 102.993 13.72 102.465 14.328C101.953 14.92 101.201 15.344 100.209 15.6C101.425 15.808 102.353 16.24 102.993 16.896C103.649 17.552 103.977 18.376 103.977 19.368V20.04C103.977 20.76 103.809 21.424 103.473 22.032C103.137 22.624 102.577 23.104 101.793 23.472C101.025 23.824 99.9926 24 98.6966 24H91.4726V23.328L92.7926 23.16C93.0486 23.128 93.2006 23.064 93.2486 22.968C93.2966 22.856 93.3206 22.528 93.3206 21.984V9.696C93.3206 9.152 93.2966 8.832 93.2486 8.736C93.2006 8.624 93.0486 8.552 92.7926 8.52L91.4726 8.352ZM98.0966 8.52H96.2006V15.24H98.0966C98.7846 15.24 99.3046 15.008 99.6566 14.544C100.009 14.064 100.185 13.312 100.185 12.288V11.52C100.185 10.48 100.009 9.72 99.6566 9.24C99.3046 8.76 98.7846 8.52 98.0966 8.52ZM98.6966 16.08H96.2006V23.16H98.6966C99.4166 23.16 99.9606 22.92 100.329 22.44C100.713 21.944 100.905 21.144 100.905 20.04V19.248C100.905 17.136 100.169 16.08 98.6966 16.08ZM123.494 8.352V7.68H128.15V8.352L126.83 8.52C126.574 8.552 126.422 8.624 126.374 8.736C126.326 8.832 126.302 9.152 126.302 9.696V18.456C126.302 20.376 125.894 21.824 125.078 22.8C124.278 23.76 123.046 24.24 121.382 24.24C119.446 24.24 117.886 23.712 116.702 22.656C115.518 21.6 114.926 20.08 114.926 18.096V9.696C114.926 9.152 114.902 8.832 114.854 8.736C114.806 8.624 114.654 8.552 114.398 8.52L113.078 8.352V7.68H119.654V8.352L118.334 8.52C118.078 8.552 117.926 8.624 117.878 8.736C117.83 8.832 117.806 9.152 117.806 9.696V18.264C117.806 20.056 118.134 21.352 118.79 22.152C119.446 22.952 120.382 23.352 121.598 23.352C122.782 23.352 123.702 22.976 124.358 22.224C125.014 21.456 125.342 20.216 125.342 18.504V9.696C125.342 9.152 125.318 8.832 125.27 8.736C125.222 8.624 125.07 8.552 124.814 8.52L123.494 8.352ZM137.068 8.352V7.68H143.644V8.352L142.324 8.52C142.068 8.552 141.916 8.624 141.868 8.736C141.82 8.832 141.796 9.152 141.796 9.696V16.152L147.484 9.696C147.948 9.168 148.188 8.848 148.204 8.736C148.236 8.624 148.124 8.552 147.868 8.52L146.548 8.352V7.68H151.42V8.352L150.1 8.52C149.94 8.536 149.812 8.568 149.716 8.616C149.62 8.664 149.5 8.768 149.356 8.928C149.212 9.088 148.98 9.344 148.66 9.696L145.3 13.488L149.452 21.984C149.628 22.32 149.764 22.568 149.86 22.728C149.956 22.888 150.068 22.992 150.196 23.04C150.324 23.088 150.5 23.128 150.724 23.16L151.804 23.328V24H147.244L143.356 15.696L141.796 17.472V21.984C141.796 22.528 141.82 22.856 141.868 22.968C141.916 23.064 142.068 23.128 142.324 23.16L143.644 23.328V24H137.068V23.328L138.388 23.16C138.644 23.128 138.796 23.064 138.844 22.968C138.892 22.856 138.916 22.528 138.916 21.984V9.696C138.916 9.152 138.892 8.832 138.844 8.736C138.796 8.624 138.644 8.552 138.388 8.52L137.068 8.352ZM170.05 8.352V7.68H174.706V8.352L173.386 8.52C173.13 8.552 172.978 8.624 172.93 8.736C172.882 8.832 172.858 9.152 172.858 9.696V18.456C172.858 20.376 172.45 21.824 171.634 22.8C170.834 23.76 169.602 24.24 167.938 24.24C166.002 24.24 164.442 23.712 163.258 22.656C162.074 21.6 161.482 20.08 161.482 18.096V9.696C161.482 9.152 161.458 8.832 161.41 8.736C161.362 8.624 161.21 8.552 160.954 8.52L159.634 8.352V7.68H166.21V8.352L164.89 8.52C164.634 8.552 164.482 8.624 164.434 8.736C164.386 8.832 164.362 9.152 164.362 9.696V18.264C164.362 20.056 164.69 21.352 165.346 22.152C166.002 22.952 166.938 23.352 168.154 23.352C169.338 23.352 170.258 22.976 170.914 22.224C171.57 21.456 171.898 20.216 171.898 18.504V9.696C171.898 9.152 171.874 8.832 171.826 8.736C171.778 8.624 171.626 8.552 171.37 8.52L170.05 8.352Z" fill="#648376"/>
<path d="M18.9082 46.72V47H16.1682V46.72L16.7182 46.65C16.8249 46.6367 16.8882 46.61 16.9082 46.57C16.9282 46.5233 16.9382 46.3867 16.9382 46.16V44.09L15.3482 41.04C15.2682 40.8867 15.2082 40.78 15.1682 40.72C15.1282 40.6533 15.0882 40.61 15.0482 40.59C15.0149 40.57 14.9649 40.5567 14.8982 40.55L14.3482 40.48V40.2H17.1982V40.48L16.6482 40.55C16.5482 40.5633 16.4982 40.5933 16.4982 40.64C16.4982 40.68 16.5516 40.8133 16.6582 41.04L17.9482 43.62L19.2882 41.04C19.4016 40.82 19.4549 40.6867 19.4482 40.64C19.4482 40.5933 19.3982 40.5633 19.2982 40.55L18.7482 40.48V40.2H20.6982V40.48L20.1482 40.55C20.0816 40.5567 20.0282 40.57 19.9882 40.59C19.9549 40.61 19.9182 40.6533 19.8782 40.72C19.8449 40.78 19.7882 40.8867 19.7082 41.04L18.1382 44.07V46.16C18.1382 46.3867 18.1482 46.5233 18.1682 46.57C18.1882 46.61 18.2516 46.6367 18.3582 46.65L18.9082 46.72ZM27.6049 44.36V44.56C27.6049 45.3267 27.4049 45.9433 27.0049 46.41C26.6115 46.87 26.0482 47.1 25.3149 47.1C24.5815 47.1 24.0149 46.87 23.6149 46.41C23.2215 45.9433 23.0249 45.3267 23.0249 44.56V44.36C23.0249 43.5933 23.2215 42.98 23.6149 42.52C24.0149 42.06 24.5815 41.83 25.3149 41.83C26.0482 41.83 26.6115 42.06 27.0049 42.52C27.4049 42.98 27.6049 43.5933 27.6049 44.36ZM26.3749 44.16C26.3749 43.4467 26.2849 42.94 26.1049 42.64C25.9249 42.3333 25.6615 42.18 25.3149 42.18C24.9749 42.18 24.7115 42.3333 24.5249 42.64C24.3449 42.94 24.2549 43.4467 24.2549 44.16V44.76C24.2549 45.4667 24.3449 45.9767 24.5249 46.29C24.7115 46.5967 24.9749 46.75 25.3149 46.75C25.6615 46.75 25.9249 46.5967 26.1049 46.29C26.2849 45.9767 26.3749 45.4667 26.3749 44.76V44.16ZM36.5201 46.72V47H34.6601V46.12C34.4735 46.46 34.2335 46.71 33.9401 46.87C33.6468 47.0233 33.3501 47.1 33.0501 47.1C32.5768 47.1 32.2001 46.9433 31.9201 46.63C31.6401 46.31 31.5001 45.8667 31.5001 45.3V42.77C31.5001 42.5433 31.4901 42.41 31.4701 42.37C31.4501 42.3233 31.3868 42.2933 31.2801 42.28L30.7301 42.21V41.93H32.6501V45.29C32.6501 45.75 32.7135 46.0867 32.8401 46.3C32.9735 46.5067 33.1635 46.61 33.4101 46.61C33.5168 46.61 33.6401 46.5833 33.7801 46.53C33.9268 46.47 34.0735 46.3667 34.2201 46.22C34.3668 46.0667 34.4935 45.85 34.6001 45.57V42.77C34.6001 42.5433 34.5901 42.4067 34.5701 42.36C34.5501 42.3133 34.4868 42.2867 34.3801 42.28L33.6301 42.21V41.93H35.7501V46.16C35.7501 46.3867 35.7601 46.5233 35.7801 46.57C35.8001 46.61 35.8635 46.6367 35.9701 46.65L36.5201 46.72ZM39.4146 42.21V41.93H41.2746V42.75C41.6812 42.1367 42.1646 41.83 42.7246 41.83C42.9312 41.83 43.1312 41.8967 43.3246 42.03C43.5179 42.1567 43.6779 42.3967 43.8046 42.75L42.9146 43.23C42.8212 42.9567 42.7112 42.7733 42.5846 42.68C42.4646 42.58 42.3346 42.53 42.1946 42.53C42.0479 42.53 41.9046 42.5767 41.7646 42.67C41.6246 42.7633 41.4812 42.9367 41.3346 43.19V46.16C41.3346 46.3867 41.3446 46.5233 41.3646 46.57C41.3846 46.61 41.4479 46.6367 41.5546 46.65L42.3046 46.72V47H39.4146V46.72L39.9646 46.65C40.0712 46.6367 40.1346 46.61 40.1546 46.57C40.1746 46.5233 40.1846 46.3867 40.1846 46.16V42.77C40.1846 42.5433 40.1746 42.41 40.1546 42.37C40.1346 42.3233 40.0712 42.2933 39.9646 42.28L39.4146 42.21ZM53.79 46.75C54.19 46.75 54.52 46.6567 54.78 46.47C55.0467 46.2767 55.18 45.9767 55.18 45.57C55.18 45.27 55.09 45.02 54.91 44.82C54.7367 44.62 54.4234 44.4533 53.97 44.32L53.04 44.04C52.5734 43.9 52.2134 43.66 51.96 43.32C51.7134 42.9733 51.59 42.5433 51.59 42.03C51.59 41.69 51.6667 41.3733 51.82 41.08C51.98 40.7867 52.22 40.55 52.54 40.37C52.8667 40.19 53.2767 40.1 53.77 40.1C54.31 40.1 54.7467 40.2 55.08 40.4C55.4134 40.5933 55.6467 40.8467 55.78 41.16C55.9134 41.4733 55.9467 41.81 55.88 42.17L54.73 42.38C54.8367 41.76 54.79 41.2833 54.59 40.95C54.3967 40.6167 54.08 40.45 53.64 40.45C53.3 40.45 53.0267 40.55 52.82 40.75C52.62 40.95 52.52 41.2367 52.52 41.61C52.52 41.9167 52.6067 42.1867 52.78 42.42C52.96 42.6533 53.2534 42.8333 53.66 42.96L54.59 43.24C55.0967 43.3867 55.4767 43.61 55.73 43.91C55.9834 44.2033 56.11 44.6133 56.11 45.14C56.11 45.5133 56.0234 45.85 55.85 46.15C55.6834 46.4433 55.4267 46.6767 55.08 46.85C54.74 47.0167 54.3134 47.1 53.8 47.1C53.4267 47.1 53.0734 47.0467 52.74 46.94C52.4067 46.8267 52.1267 46.6433 51.9 46.39C51.68 46.1367 51.54 45.7933 51.48 45.36L52.15 45.12C52.1834 45.5467 52.2767 45.88 52.43 46.12C52.59 46.3533 52.7867 46.5167 53.02 46.61C53.26 46.7033 53.5167 46.75 53.79 46.75ZM65.1753 46.72V47H62.4853V46.72L63.0353 46.65C63.1419 46.6367 63.2053 46.61 63.2253 46.57C63.2453 46.5233 63.2553 46.3867 63.2553 46.16V43.64C63.2553 43.18 63.1919 42.8467 63.0653 42.64C62.9386 42.4267 62.7486 42.32 62.4953 42.32C62.3886 42.32 62.2619 42.35 62.1153 42.41C61.9686 42.4633 61.8219 42.5633 61.6753 42.71C61.5353 42.8567 61.4119 43.0733 61.3053 43.36V46.16C61.3053 46.3867 61.3153 46.5233 61.3353 46.57C61.3553 46.61 61.4186 46.6367 61.5253 46.65L62.0753 46.72V47H59.3853V46.72L59.9353 46.65C60.0419 46.6367 60.1053 46.61 60.1253 46.57C60.1453 46.5233 60.1553 46.3867 60.1553 46.16V42.77C60.1553 42.5433 60.1453 42.41 60.1253 42.37C60.1053 42.3233 60.0419 42.2933 59.9353 42.28L59.3853 42.21V41.93H61.2453V42.81C61.4319 42.47 61.6719 42.2233 61.9653 42.07C62.2586 41.91 62.5553 41.83 62.8553 41.83C63.2153 41.83 63.5186 41.9233 63.7653 42.11C64.0186 42.29 64.1986 42.55 64.3053 42.89C64.4853 42.5167 64.7286 42.2467 65.0353 42.08C65.3419 41.9133 65.6486 41.83 65.9553 41.83C66.4286 41.83 66.8053 41.9867 67.0853 42.3C67.3653 42.6133 67.5053 43.0567 67.5053 43.63V46.16C67.5053 46.3867 67.5153 46.5233 67.5353 46.57C67.5553 46.61 67.6186 46.6367 67.7253 46.65L68.2753 46.72V47H65.5853V46.72L66.1353 46.65C66.2419 46.6367 66.3053 46.61 66.3253 46.57C66.3453 46.5233 66.3553 46.3867 66.3553 46.16V43.64C66.3553 43.18 66.2919 42.8467 66.1653 42.64C66.0386 42.4267 65.8486 42.32 65.5953 42.32C65.4886 42.32 65.3619 42.35 65.2153 42.41C65.0686 42.4633 64.9219 42.5667 64.7753 42.72C64.6286 42.8733 64.5019 43.0967 64.3953 43.39C64.4019 43.4233 64.4053 43.4633 64.4053 43.51C64.4053 43.55 64.4053 43.59 64.4053 43.63V46.16C64.4053 46.3867 64.4153 46.5233 64.4353 46.57C64.4553 46.61 64.5186 46.6367 64.6253 46.65L65.1753 46.72ZM76.2138 46.75C76.1071 46.85 75.9771 46.9333 75.8238 47C75.6771 47.0667 75.4971 47.1 75.2838 47.1C75.0105 47.1 74.7805 47.04 74.5938 46.92C74.4138 46.8 74.2938 46.63 74.2338 46.41C74.0138 46.65 73.7705 46.8267 73.5038 46.94C73.2438 47.0467 72.9771 47.1 72.7038 47.1C72.2438 47.1 71.9005 46.9733 71.6738 46.72C71.4471 46.46 71.3338 46.1367 71.3338 45.75C71.3338 45.3567 71.4771 45.04 71.7638 44.8C72.0505 44.5533 72.5571 44.43 73.2838 44.43H74.1938V43.62C74.1938 43.0667 74.1205 42.69 73.9738 42.49C73.8338 42.2833 73.6371 42.18 73.3838 42.18C73.2171 42.18 73.0638 42.2233 72.9238 42.31C72.7838 42.39 72.6838 42.5433 72.6238 42.77C72.5705 42.99 72.5805 43.31 72.6538 43.73L71.5538 43.57C71.5005 43.2633 71.5338 42.98 71.6538 42.72C71.7805 42.4533 71.9905 42.24 72.2838 42.08C72.5771 41.9133 72.9505 41.83 73.4038 41.83C73.9171 41.83 74.3138 41.9133 74.5938 42.08C74.8738 42.2467 75.0671 42.4667 75.1738 42.74C75.2871 43.0133 75.3438 43.3067 75.3438 43.62V45.93C75.3438 46.27 75.3738 46.4833 75.4338 46.57C75.4938 46.6567 75.5605 46.7 75.6338 46.7C75.7538 46.7 75.8871 46.63 76.0338 46.49L76.2138 46.75ZM73.1438 46.57C73.3171 46.57 73.4871 46.5267 73.6538 46.44C73.8271 46.3467 74.0071 46.1767 74.1938 45.93V44.78H73.4438C73.1171 44.78 72.8805 44.8567 72.7338 45.01C72.5871 45.1633 72.5138 45.4033 72.5138 45.73C72.5138 45.9967 72.5671 46.2033 72.6738 46.35C72.7805 46.4967 72.9371 46.57 73.1438 46.57ZM78.9946 42.21V41.93H80.8546V42.75C81.2613 42.1367 81.7446 41.83 82.3046 41.83C82.5113 41.83 82.7113 41.8967 82.9046 42.03C83.098 42.1567 83.258 42.3967 83.3846 42.75L82.4946 43.23C82.4013 42.9567 82.2913 42.7733 82.1646 42.68C82.0446 42.58 81.9146 42.53 81.7746 42.53C81.628 42.53 81.4846 42.5767 81.3446 42.67C81.2046 42.7633 81.0613 42.9367 80.9146 43.19V46.16C80.9146 46.3867 80.9246 46.5233 80.9446 46.57C80.9646 46.61 81.028 46.6367 81.1346 46.65L81.8846 46.72V47H78.9946V46.72L79.5446 46.65C79.6513 46.6367 79.7146 46.61 79.7346 46.57C79.7546 46.5233 79.7646 46.3867 79.7646 46.16V42.77C79.7646 42.5433 79.7546 42.41 79.7346 42.37C79.7146 42.3233 79.6513 42.2933 79.5446 42.28L78.9946 42.21ZM89.6738 45.96C89.5871 46.3667 89.4205 46.66 89.1738 46.84C88.9338 47.0133 88.6405 47.1 88.2938 47.1C87.9405 47.1 87.6505 47.0233 87.4238 46.87C87.1971 46.71 87.0305 46.5 86.9238 46.24C86.8171 45.98 86.7638 45.7033 86.7638 45.41V42.77C86.7638 42.5433 86.7538 42.41 86.7338 42.37C86.7138 42.3233 86.6505 42.2933 86.5438 42.28L85.9938 42.21V41.93H86.7638V40.77L87.9138 40.54V41.93H89.5138V42.28H87.9138V45.61C87.9138 46.0367 87.9671 46.3333 88.0738 46.5C88.1805 46.66 88.3171 46.74 88.4838 46.74C88.6571 46.74 88.7905 46.6733 88.8838 46.54C88.9838 46.4067 89.0471 46.1633 89.0738 45.81L89.6738 45.96ZM101.965 45.28H102.245V47H97.4954V46.72L98.0454 46.65C98.1521 46.6367 98.2154 46.61 98.2354 46.57C98.2554 46.5233 98.2654 46.3867 98.2654 46.16V41.04C98.2654 40.8133 98.2554 40.68 98.2354 40.64C98.2154 40.5933 98.1521 40.5633 98.0454 40.55L97.4954 40.48V40.2H100.235V40.48L99.6854 40.55C99.5788 40.5633 99.5154 40.5933 99.4954 40.64C99.4754 40.68 99.4654 40.8133 99.4654 41.04V46.65H101.105C101.265 46.65 101.379 46.6467 101.445 46.64C101.512 46.6267 101.555 46.6033 101.575 46.57C101.602 46.53 101.625 46.47 101.645 46.39L101.965 45.28ZM106.458 41.07C106.251 41.07 106.084 41.0067 105.958 40.88C105.831 40.7467 105.768 40.5767 105.768 40.37C105.768 40.1633 105.831 39.9967 105.958 39.87C106.084 39.7433 106.251 39.68 106.458 39.68C106.658 39.68 106.824 39.7433 106.958 39.87C107.091 39.9967 107.158 40.1633 107.158 40.37C107.158 40.5767 107.091 40.7467 106.958 40.88C106.824 41.0067 106.658 41.07 106.458 41.07ZM105.118 42.21V41.93H107.038V46.16C107.038 46.3867 107.048 46.5233 107.068 46.57C107.088 46.61 107.151 46.6367 107.258 46.65L107.808 46.72V47H105.118V46.72L105.668 46.65C105.774 46.6367 105.838 46.61 105.858 46.57C105.878 46.5233 105.888 46.3867 105.888 46.16V42.77C105.888 42.5433 105.878 42.41 105.858 42.37C105.838 42.3233 105.774 42.2933 105.668 42.28L105.118 42.21ZM110.544 39.88V39.6H112.464V42.67C112.644 42.39 112.844 42.18 113.064 42.04C113.291 41.9 113.551 41.83 113.844 41.83C114.404 41.83 114.847 42.0533 115.174 42.5C115.507 42.94 115.674 43.56 115.674 44.36V44.56C115.674 45.3333 115.484 45.95 115.104 46.41C114.724 46.87 114.197 47.1 113.524 47.1C113.011 47.1 112.591 46.9467 112.264 46.64C112.144 46.6867 112.027 46.7467 111.914 46.82C111.807 46.8867 111.697 46.9633 111.584 47.05H111.314V40.44C111.314 40.2133 111.304 40.08 111.284 40.04C111.264 39.9933 111.201 39.9633 111.094 39.95L110.544 39.88ZM113.584 42.27C113.417 42.27 113.241 42.34 113.054 42.48C112.874 42.6133 112.677 42.89 112.464 43.31V46.33C112.717 46.5833 113.027 46.71 113.394 46.71C113.767 46.71 114.034 46.5467 114.194 46.22C114.361 45.8867 114.444 45.4333 114.444 44.86V44.06C114.444 43.44 114.367 42.9867 114.214 42.7C114.061 42.4133 113.851 42.27 113.584 42.27ZM118.965 42.21V41.93H120.825V42.75C121.232 42.1367 121.715 41.83 122.275 41.83C122.482 41.83 122.682 41.8967 122.875 42.03C123.069 42.1567 123.229 42.3967 123.355 42.75L122.465 43.23C122.372 42.9567 122.262 42.7733 122.135 42.68C122.015 42.58 121.885 42.53 121.745 42.53C121.599 42.53 121.455 42.5767 121.315 42.67C121.175 42.7633 121.032 42.9367 120.885 43.19V46.16C120.885 46.3867 120.895 46.5233 120.915 46.57C120.935 46.61 120.999 46.6367 121.105 46.65L121.855 46.72V47H118.965V46.72L119.515 46.65C119.622 46.6367 119.685 46.61 119.705 46.57C119.725 46.5233 119.735 46.3867 119.735 46.16V42.77C119.735 42.5433 119.725 42.41 119.705 42.37C119.685 42.3233 119.622 42.2933 119.515 42.28L118.965 42.21ZM131.136 46.75C131.029 46.85 130.899 46.9333 130.746 47C130.599 47.0667 130.419 47.1 130.206 47.1C129.932 47.1 129.702 47.04 129.516 46.92C129.336 46.8 129.216 46.63 129.156 46.41C128.936 46.65 128.692 46.8267 128.426 46.94C128.166 47.0467 127.899 47.1 127.626 47.1C127.166 47.1 126.822 46.9733 126.596 46.72C126.369 46.46 126.256 46.1367 126.256 45.75C126.256 45.3567 126.399 45.04 126.686 44.8C126.972 44.5533 127.479 44.43 128.206 44.43H129.116V43.62C129.116 43.0667 129.042 42.69 128.896 42.49C128.756 42.2833 128.559 42.18 128.306 42.18C128.139 42.18 127.986 42.2233 127.846 42.31C127.706 42.39 127.606 42.5433 127.546 42.77C127.492 42.99 127.502 43.31 127.576 43.73L126.476 43.57C126.422 43.2633 126.456 42.98 126.576 42.72C126.702 42.4533 126.912 42.24 127.206 42.08C127.499 41.9133 127.872 41.83 128.326 41.83C128.839 41.83 129.236 41.9133 129.516 42.08C129.796 42.2467 129.989 42.4667 130.096 42.74C130.209 43.0133 130.266 43.3067 130.266 43.62V45.93C130.266 46.27 130.296 46.4833 130.356 46.57C130.416 46.6567 130.482 46.7 130.556 46.7C130.676 46.7 130.809 46.63 130.956 46.49L131.136 46.75ZM128.066 46.57C128.239 46.57 128.409 46.5267 128.576 46.44C128.749 46.3467 128.929 46.1767 129.116 45.93V44.78H128.366C128.039 44.78 127.802 44.8567 127.656 45.01C127.509 45.1633 127.436 45.4033 127.436 45.73C127.436 45.9967 127.489 46.2033 127.596 46.35C127.702 46.4967 127.859 46.57 128.066 46.57ZM133.917 42.21V41.93H135.777V42.75C136.183 42.1367 136.667 41.83 137.227 41.83C137.433 41.83 137.633 41.8967 137.827 42.03C138.02 42.1567 138.18 42.3967 138.307 42.75L137.417 43.23C137.323 42.9567 137.213 42.7733 137.087 42.68C136.967 42.58 136.837 42.53 136.697 42.53C136.55 42.53 136.407 42.5767 136.267 42.67C136.127 42.7633 135.983 42.9367 135.837 43.19V46.16C135.837 46.3867 135.847 46.5233 135.867 46.57C135.887 46.61 135.95 46.6367 136.057 46.65L136.807 46.72V47H133.917V46.72L134.467 46.65C134.573 46.6367 134.637 46.61 134.657 46.57C134.677 46.5233 134.687 46.3867 134.687 46.16V42.77C134.687 42.5433 134.677 42.41 134.657 42.37C134.637 42.3233 134.573 42.2933 134.467 42.28L133.917 42.21ZM143.836 47.5C143.682 47.92 143.512 48.2567 143.326 48.51C143.146 48.7633 142.922 48.9467 142.656 49.06C142.389 49.1733 142.056 49.23 141.656 49.23V48.13C142.062 48.13 142.389 48.1 142.636 48.04C142.889 47.9867 143.082 47.8967 143.216 47.77C143.356 47.65 143.459 47.4933 143.526 47.3L143.626 47H143.106L141.686 42.77C141.639 42.6167 141.599 42.51 141.566 42.45C141.539 42.3833 141.506 42.34 141.466 42.32C141.432 42.3 141.379 42.2867 141.306 42.28L140.756 42.21V41.93H143.456V42.21L142.906 42.28C142.826 42.2867 142.776 42.3133 142.756 42.36C142.742 42.4 142.772 42.5367 142.846 42.77L143.936 46.07L145.066 42.73C145.139 42.5167 145.169 42.3933 145.156 42.36C145.149 42.32 145.096 42.2933 144.996 42.28L144.446 42.21V41.93H146.356V42.21L145.806 42.28C145.706 42.2933 145.639 42.32 145.606 42.36C145.572 42.4 145.519 42.5233 145.446 42.73L143.836 47.5ZM149.273 47.1C149.066 47.1 148.896 47.0367 148.763 46.91C148.636 46.7767 148.573 46.6033 148.573 46.39C148.573 46.1767 148.636 46.0067 148.763 45.88C148.896 45.7533 149.066 45.69 149.273 45.69C149.48 45.69 149.65 45.7533 149.783 45.88C149.916 46.0067 149.983 46.1767 149.983 46.39C149.983 46.6033 149.916 46.7767 149.783 46.91C149.65 47.0367 149.48 47.1 149.273 47.1Z" fill="#648376"/>
<line x1="13" y1="59.5" x2="150" y2="59.5" stroke="#648376"/>
</svg>
